<svg height="368pt" viewBox="0 0 368 368" width="368pt" xmlns="http://www.w3.org/2000/svg"><path d="M344 8H24C15.2 8 8 15.2 8 24v320c0 8.8 7.2 16 16 16h320c8.8 0 16-7.2 16-16V24c0-8.8-7.2-16-16-16zm0 0" fill="#cce4ff"/><g fill="#007aff"><path d="M344 0H24C10.77 0 0 10.77 0 24v320c0 13.23 10.77 24 24 24h320c13.23 0 24-10.77 24-24V24c0-13.23-10.77-24-24-24zm8 344c0 4.414-3.594 8-8 8H24c-4.406 0-8-3.586-8-8V24c0-4.406 3.594-8 8-8h320c4.406 0 8 3.594 8 8zm0 0"/><path d="M216 64H104c-4.414 0-8 3.586-8 8v224c0 4.426 3.586 8 8 8h112c30.879 0 56-25.129 56-56v-16c0-20.383-10.984-38.2-27.305-48 16.32-9.793 27.305-27.617 27.305-48v-16c0-30.879-25.121-56-56-56zm40 168v16c0 22.055-17.945 40-40 40H112v-96h104c22.055 0 40 17.945 40 40zm0-96c0 22.055-17.945 40-40 40H112V80h104c22.055 0 40 17.945 40 40zm0 0"/></g></svg>