<svg height="512" viewBox="0 0 128 128" width="512" xmlns="http://www.w3.org/2000/svg" data-name="Layer 1">
  <path d="M113.18 33.92l-11.62-7.25a6.66 6.66 0 0 0-5.8-.6 3.1 3.1 0 0 1-2.74-.28L73.6 13.66a15.12 15.12 0 0 0-14.94-.58l-14.56 7.6a1.75 1.75 0 0 0-.12 3.04l12.37 7.72-3.61 5.79a1.75 1.75 0 0 0 .55 2.4l1.28.8-39.23 62.83a8.74 8.74 0 1 0 14.82 9.25L69.38 49.7l1.27.8a1.75 1.75 0 0 0 2.41-.57l3.61-5.78 3.52 2.2a3.14 3.14 0 0 1 1.46 2.33 6.66 6.66 0 0 0 3.08 4.95l11.62 7.26a1.75 1.75 0 0 0 2.4-.56l14.98-23.99a1.75 1.75 0 0 0-.55-2.4zm-86 76.74a5.24 5.24 0 1 1-8.89-5.55L57.52 42.3l8.89 5.54zM71.02 46.6l-14.4-8.99 2.69-4.3 14.4 9zm11.03-3.22l-33.63-21 11.85-6.18a11.6 11.6 0 0 1 11.47.44l19.43 12.13a6.58 6.58 0 0 0 5.8.6 3.1 3.1 0 0 1 .95-.17L85.39 49.25a3.08 3.08 0 0 1-.26-.93 6.66 6.66 0 0 0-3.08-4.95zm14.67 13.61l-8.65-5.4 13.12-21.02 8.65 5.4z"/>
</svg>
